<?xml version="1.0" standalone="no"?>
<!DOCTYPE svg PUBLIC "-//W3C//DTD SVG 20010904//EN"
 "http://www.w3.org/TR/2001/REC-SVG-20010904/DTD/svg10.dtd">
<svg version="1.0" xmlns="http://www.w3.org/2000/svg"
 width="225.000000pt" height="225.000000pt" viewBox="0 0 225.000000 225.000000"
 preserveAspectRatio="xMidYMid meet">
<metadata>
Created by potrace 1.16, written by Peter Selinger 2001-2019
</metadata>
<g transform="translate(0.000000,225.000000) scale(0.100000,-0.100000)"
fill="#000000" stroke="none">
<path d="M943 2042 c-131 -47 -210 -141 -235 -282 -9 -53 -12 -58 -40 -64 -48
-10 -130 -55 -170 -94 -21 -20 -38 -39 -38 -42 0 -3 22 -22 50 -43 l50 -37 47
33 c27 19 63 39 82 46 45 15 127 13 174 -3 28 -11 39 -11 43 -3 8 23 34 112
34 118 0 4 -20 12 -45 19 -25 7 -48 16 -51 21 -10 17 19 98 49 134 114 139
351 72 369 -105 3 -32 1 -34 -41 -47 -24 -7 -46 -14 -48 -17 -4 -4 12 -71 27
-111 8 -22 10 -22 47 -9 86 30 188 11 270 -52 l33 -25 50 38 c27 20 50 40 50
43 0 9 -71 74 -101 93 -15 9 -53 25 -85 36 l-59 20 -6 53 c-12 109 -93 218
-197 266 -76 34 -185 40 -259 14z"/>
<path d="M696 1485 c-54 -19 -111 -78 -126 -129 -21 -78 26 -175 100 -206 l30
-12 0 -257 c0 -288 7 -347 49 -437 78 -166 243 -263 425 -251 138 9 248 66
328 172 75 99 82 131 86 392 3 223 3 232 -17 252 -26 26 -62 27 -92 2 -24 -19
-24 -23 -29 -243 -6 -258 -13 -283 -101 -362 -152 -136 -390 -85 -478 103 -26
56 -26 57 -29 344 -3 234 -1 287 10 287 27 0 88 52 108 90 79 156 -88 318
-264 255z m149 -130 c30 -29 31 -45 5 -78 -51 -64 -170 -35 -170 42 0 57 118
84 165 36z"/>
<path d="M1255 1484 c-84 -31 -129 -98 -123 -184 5 -68 31 -109 94 -146 l45
-27 -3 -183 -3 -184 -28 -27 c-38 -39 -99 -39 -133 0 -22 26 -24 37 -24 138 0
103 -1 111 -25 134 -29 30 -68 32 -95 5 -18 -18 -20 -33 -20 -143 0 -112 2
-128 26 -175 31 -63 88 -107 159 -123 98 -22 210 33 254 124 19 39 21 61 21
239 l0 196 44 26 c115 67 134 191 42 282 -61 62 -145 79 -231 48z m149 -125
c45 -35 30 -89 -29 -109 -43 -14 -82 -6 -112 22 -30 28 -29 53 2 83 32 33 100
35 139 4z"/>
</g>
</svg>
