<?xml version="1.0" standalone="no"?>
<!DOCTYPE svg PUBLIC "-//W3C//DTD SVG 20010904//EN"
 "http://www.w3.org/TR/2001/REC-SVG-20010904/DTD/svg10.dtd">
<svg version="1.0" xmlns="http://www.w3.org/2000/svg"
 width="1200.000000pt" height="1200.000000pt" viewBox="0 0 1200.000000 1200.000000"
 preserveAspectRatio="xMidYMid meet">
<metadata>
Created by potrace 1.16, written by Peter Selinger 2001-2019
</metadata>
<g transform="translate(0.000000,1200.000000) scale(0.100000,-0.100000)"
fill="#000000" stroke="none">
<path d="M4760 11824 c-36 -7 -99 -30 -140 -50 -99 -49 -230 -179 -277 -275
-65 -132 -63 -82 -63 -1296 0 -607 -2 -1103 -3 -1103 -2 0 -60 29 -130 64
-134 67 -319 133 -457 163 -80 17 -174 18 -1570 18 l-1485 0 -70 -22 c-89 -28
-180 -83 -250 -152 -120 -118 -170 -227 -186 -405 -6 -71 -9 -1530 -7 -4076 3
-3797 4 -3968 22 -4025 50 -165 175 -319 316 -388 149 -73 -155 -67 3405 -67
3556 0 3270 -5 3406 66 140 74 255 209 307 359 l27 80 3 993 3 992 1807 0
c1575 0 1815 2 1871 15 196 47 379 220 448 425 17 53 18 149 21 2315 2 1603 0
2288 -8 2358 -28 244 -139 536 -293 767 -38 58 -359 385 -1451 1478 -770 772
-1430 1425 -1466 1451 -140 105 -364 212 -562 271 -206 61 -168 60 -1729 59
-1181 0 -1435 -3 -1489 -15z m2840 -2216 c0 -1534 -3 -1452 63 -1587 44 -90
178 -226 266 -271 140 -70 6 -64 1574 -67 l1417 -3 0 -2070 0 -2070 -1655 0
-1654 0 -4 903 c-3 886 -4 904 -25 999 -31 136 -84 283 -153 427 -119 248 -66
190 -1240 1366 l-1069 1070 0 1348 0 1347 1240 0 1240 0 0 -1392z m1800 -133
l955 -955 -958 0 -957 0 0 955 c0 525 1 955 3 955 1 0 432 -430 957 -955z
m-5948 -2387 l3 -1423 23 -62 c66 -175 209 -318 383 -381 l74 -27 1418 -3
1417 -2 0 -2070 0 -2070 -2900 0 -2900 0 0 3730 0 3730 1240 0 1240 0 2 -1422z
m1798 -103 l955 -955 -958 0 -957 0 0 955 c0 525 1 955 3 955 1 0 432 -430
957 -955z"/>
</g>
</svg>
